<?xml version="1.0" encoding="iso-8859-1"?>
<!-- Generator: Adobe Illustrator 19.0.0, SVG Export Plug-In . SVG Version: 6.00 Build 0)  -->
<svg version="1.1" id="Layer_1" xmlns="http://www.w3.org/2000/svg" xmlns:xlink="http://www.w3.org/1999/xlink" x="0px" y="0px"
	 viewBox="0 0 512 512" style="enable-background:new 0 0 512 512;" xml:space="preserve">
<path d="M399.007,308.083c0-0.883-1.766-0.883-1.766-1.766c-12.359-15.89-26.483-29.131-26.483-60.028V144.772
	c0-43.255,5.297-82.097-26.483-112.11C317.793,8.828,278.952,0,247.172,0h-13.241c-57.379,3.531-118.29,28.248-132.414,99.752
	c-2.648,8.828,4.414,12.359,8.828,13.241l63.559,7.945c7.062-0.883,10.593-7.945,11.476-14.124
	c5.297-24.717,25.6-40.607,48.552-40.607h4.414c13.241,0,27.366,7.062,34.428,18.538c8.828,13.241,7.945,32.662,7.945,48.552v7.945
	c-7.945,0.883-31.779,3.531-49.434,5.297c-25.6,3.531-51.2,7.945-72.386,18.538c-41.49,16.772-69.738,52.966-69.738,105.931
	c0,13.241,1.766,25.6,5.297,37.076c13.241,42.372,48.552,63.559,91.807,63.559c17.655,0,32.662-2.648,45.903-5.297
	c21.186-7.062,39.724-19.421,60.91-41.49c12.359,16.772,15.89,24.717,37.076,43.255c5.297,2.648,11.476,2.648,15.89-0.883
	c13.241-11.476,37.076-31.779,49.434-43.255C402.538,319.559,401.655,313.379,399.007,308.083"/>
<path style="fill:#FFFFFF;" d="M232.166,198.621c15.007-3.531,32.662-4.414,49.434-4.414v13.241c0,25.6,0.883,45.903-13.241,68.855
	c-7.945,15.89-21.186,25.6-35.31,29.131c-2.648,0-5.297,0.883-8.828,0.883c-24.717,0-39.724-19.421-39.724-47.669
	C184.497,223.338,205.683,206.566,232.166,198.621"/>
<path style="fill:#FFA900;" d="M511.117,383.117L511.117,383.117c0-5.297-1.766-9.71-3.531-12.359l0,0l0,0
	c-2.648-2.648-4.414-3.531-7.062-4.414c-7.062-2.648-17.655-4.414-30.014-4.414c-5.297,0-7.945,0-16.772,0.883l0,0
	c0,0.883-7.945,0.883-11.476,1.766c-15.89,3.531-26.483,10.593-31.779,15.007c-3.531,2.648-7.062,6.179-7.062,11.476
	c0,2.648,0.883,6.179,3.531,7.945c2.648,1.766,5.297,2.648,7.062,2.648c0.883,0,0.883,0,1.766,0h0.883l0,0
	c4.414-0.883,10.593-1.766,19.421-2.648c4.414-0.883,7.062-0.883,10.593-0.883l-38.841,24.717
	c-53.848,22.952-109.462,35.31-161.545,36.193c-47.669,0-98.869-8.828-140.359-30.014c-6.179-3.531-13.241-6.179-19.421-8.828
	c-16.772-7.945-31.779-16.772-45.903-26.483c-7.945-3.531-14.124-7.062-20.303-10.593c-2.648-0.883-6.179-1.766-7.945-1.766
	c-3.531,0-7.062,0.883-8.828,3.531C0.883,386.648,0,390.179,0,393.71c0,4.414,1.766,7.945,5.297,10.593
	C69.738,459.917,140.359,512,236.579,512c1.766,0,3.531,0,5.297,0c60.91-1.766,129.766-22.069,182.731-55.614l0,0
	c4.414-2.648,24.717-15.89,41.49-27.366c-2.648,8.828-6.179,17.655-8.828,23.835c-0.883,1.766-0.883,3.531-0.883,5.297
	c0,2.648,0.883,7.062,3.531,8.828s5.297,3.531,7.945,3.531l0,0c3.531,0,7.062-2.648,9.71-4.414
	c24.717-22.069,33.545-59.145,34.428-79.448L511.117,383.117z"/>
<g>
</g>
<g>
</g>
<g>
</g>
<g>
</g>
<g>
</g>
<g>
</g>
<g>
</g>
<g>
</g>
<g>
</g>
<g>
</g>
<g>
</g>
<g>
</g>
<g>
</g>
<g>
</g>
<g>
</g>
</svg>
